<svg height="488pt" viewBox="-44 0 488 488.62" width="488pt" xmlns="http://www.w3.org/2000/svg"><path d="m198.75 207.828125s-88.441406-25.859375-88.441406-103.597656v-52.210938l.589844-.25c15.859374-6.824219 31.300781-14.582031 46.242187-23.230469 14.941406-8.648437 29.355469-18.179687 43.167969-28.539062 27.652344 20.730469 57.664062 38.109375 89.410156 51.769531l.589844.25v52.210938c0 77.738281-91.558594 103.597656-91.558594 103.597656zm0 0" fill="#6fe3ff"/><path d="m328.910156 365.691406c-21.238281.003906-38.457031-17.210937-38.460937-38.453125v-19.226562c0-21.242188 17.21875-38.460938 38.460937-38.460938 21.242188 0 38.460938 17.21875 38.460938 38.460938v19.226562c-.003906 21.242188-17.222656 38.457031-38.460938 38.453125zm0 0" fill="#cc7350"/><path d="m273.609375 389.710938c7.398437-5.988282 16.566406-9.359376 26.082031-9.589844 6.835938 9.238281 17.550782 14.804687 29.039063 15.085937 11.488281.285157 22.464843-4.746093 29.75-13.636719.355469-.5.765625-.964843 1.21875-1.378906 22.820312 1.410156 40.605469 20.328125 40.609375 43.1875v43.269532h-118.339844v-49.429688c.015625-9.796875-2.894531-19.375-8.359375-27.507812zm0 0" fill="#cc7350"/><path d="m167.019531 367.789062c7.804688 10.558594 20.042969 16.921876 33.167969 17.25 13.125.324219 25.667969-5.429687 33.984375-15.589843.414063-.570313.882813-1.097657 1.398437-1.578125 26.074219 1.605468 46.398438 23.222656 46.398438 49.347656v71.402344h-163.140625v-71.402344c.019531-26.8125 21.386719-48.730469 48.191406-49.429688zm0 0" fill="#e48e66"/><path d="m156.460938 285.410156c0-24.265625 19.667968-43.933594 43.933593-43.933594s43.933594 19.667969 43.933594 43.933594v21.96875c0 24.265625-19.667969 43.9375-43.933594 43.9375s-43.933593-19.671875-43.933593-43.9375zm0 0" fill="#e48e66"/><path d="m42.488281 380.121094c6.835938 9.238281 17.550781 14.804687 29.039063 15.085937 11.484375.285157 22.460937-4.746093 29.742187-13.636719.363281-.5.769531-.960937 1.21875-1.378906 8.234375.488282 16.152344 3.335938 22.8125 8.199219l1.777344 1.480469.011719.007812c-5.402344 8.09375-8.277344 17.609375-8.261719 27.339844v49.429688h-118.519531v-43.269532c.003906-23.472656 18.714844-42.664062 42.179687-43.257812zm0 0" fill="#cc7350"/><path d="m71.710938 365.691406c-21.238282.003906-38.460938-17.210937-38.460938-38.453125v-19.226562c0-21.242188 17.21875-38.460938 38.460938-38.460938 21.238281 0 38.460937 17.21875 38.460937 38.460938v19.226562c-.003906 21.242188-17.222656 38.457031-38.460937 38.453125zm0 0" fill="#cc7350"/><g fill="#2561a1"><path d="m200.308594 176.011719c-3.3125 0-6-2.6875-6-6v-5.5c0-3.316407 2.6875-6 6-6 3.316406 0 6 2.683593 6 6v5.5c0 3.3125-2.683594 6-6 6zm0 0"/><path d="m218.199219 176.011719c-3.3125 0-6-2.6875-6-6v-5.5c0-3.316407 2.6875-6 6-6 3.316406 0 6 2.683593 6 6v5.5c0 3.3125-2.683594 6-6 6zm0 0"/><path d="m236.078125 176.011719c-3.3125 0-6-2.6875-6-6v-5.5c0-3.316407 2.6875-6 6-6 3.316406 0 6 2.683593 6 6v5.5c0 3.3125-2.683594 6-6 6zm0 0"/><path d="m253.96875 176.011719c-3.3125 0-6-2.6875-6-6v-5.5c0-3.316407 2.6875-6 6-6 3.316406 0 6 2.683593 6 6v5.5c0 3.3125-2.683594 6-6 6zm0 0"/><path d="m182.421875 176.011719c-3.316406 0-6-2.6875-6-6v-5.5c0-3.316407 2.683594-6 6-6 3.3125 0 6 2.683593 6 6v5.5c0 3.3125-2.6875 6-6 6zm0 0"/><path d="m164.539062 176.011719c-3.3125 0-6-2.6875-6-6v-5.5c0-3.316407 2.6875-6 6-6 3.316407 0 6 2.683593 6 6v5.5c0 3.3125-2.683593 6-6 6zm0 0"/><path d="m146.648438 176.011719c-3.3125 0-6-2.6875-6-6v-5.5c0-3.316407 2.6875-6 6-6 3.316406 0 6 2.683593 6 6v5.5c0 3.3125-2.683594 6-6 6zm0 0"/><path d="m192.589844 127.828125c-1.589844 0-3.117188-.628906-4.242188-1.757813l-20.378906-20.378906c-2.289062-2.351562-2.265625-6.105468.058594-8.425781 2.320312-2.320313 6.074218-2.347656 8.425781-.058594l16.136719 16.136719 31.574218-31.585938c2.34375-2.34375 6.144532-2.34375 8.488282 0 2.34375 2.339844 2.34375 6.140626 0 8.484376l-35.820313 35.828124c-1.125 1.128907-2.652343 1.757813-4.242187 1.757813zm0 0"/></g></svg>