<?xml version="1.0" encoding="iso-8859-1"?>
<!-- Generator: Adobe Illustrator 19.0.0, SVG Export Plug-In . SVG Version: 6.00 Build 0)  -->
<svg version="1.1" id="Layer_1" xmlns="http://www.w3.org/2000/svg" xmlns:xlink="http://www.w3.org/1999/xlink" x="0px" y="0px"
	 viewBox="0 0 512 512" style="enable-background:new 0 0 512 512;" xml:space="preserve">
<path style="fill:#BDC5CC;" d="M256,77.913c-9.217,0-16.696-7.473-16.696-16.696V16.696C239.304,7.473,246.783,0,256,0
	s16.696,7.473,16.696,16.696v44.522C272.696,70.44,265.217,77.913,256,77.913z"/>
<path style="fill:#8FA3B3;" d="M272.696,61.217V16.696C272.696,7.473,265.217,0,256,0v77.913
	C265.217,77.913,272.696,70.44,272.696,61.217z"/>
<path style="fill:#D5DEE6;" d="M372.87,200.348H139.13v-38.957c0-64.545,52.324-116.87,116.87-116.87l0,0
	c64.545,0,116.87,52.324,116.87,116.87V200.348z"/>
<path style="fill:#A3BACC;" d="M372.87,200.348v-38.957c0-64.545-52.323-116.87-116.87-116.87v155.826H372.87z"/>
<path style="fill:#E6EDF2;" d="M389.565,345.043h-267.13c-9.217,0-16.696-7.473-16.696-16.696v-66.783
	c0-9.223,7.479-16.696,16.696-16.696h267.13c9.217,0,16.696,7.473,16.696,16.696v66.783
	C406.261,337.57,398.782,345.043,389.565,345.043z"/>
<path style="fill:#B8CAD9;" d="M389.565,244.87H256v100.174h133.565c9.217,0,16.696-7.473,16.696-16.696v-66.783
	C406.261,252.343,398.782,244.87,389.565,244.87z"/>
<path style="fill:#D5DEE6;" d="M456.348,311.652H55.652c-27.619,0-50.087,22.468-50.087,50.087v133.565
	c0,9.223,7.479,16.696,16.696,16.696h467.478c9.217,0,16.696-7.473,16.696-16.696V361.739
	C506.435,334.12,483.967,311.652,456.348,311.652z"/>
<path style="fill:#A3BACC;" d="M456.348,311.652H256V512h233.739c9.217,0,16.696-7.473,16.696-16.696V361.739
	C506.435,334.12,483.967,311.652,456.348,311.652z"/>
<path style="fill:#D5DEE6;" d="M406.261,512H105.739V311.652h300.522V512z"/>
<rect x="256" y="311.652" style="fill:#A3BACC;" width="150.261" height="200.348"/>
<rect x="139.13" y="189.217" style="fill:#D5DEE6;" width="233.739" height="77.913"/>
<rect x="256" y="189.217" style="fill:#A3BACC;" width="116.87" height="77.913"/>
<path style="fill:#E6EDF2;" d="M222.609,278.261c-9.217,0-16.696-7.473-16.696-16.696v-66.783c0-9.223,7.479-16.696,16.696-16.696
	s16.696,7.473,16.696,16.696v66.783C239.304,270.788,231.826,278.261,222.609,278.261z"/>
<path style="fill:#B8CAD9;" d="M289.391,278.261c-9.217,0-16.696-7.473-16.696-16.696v-66.783c0-9.223,7.479-16.696,16.696-16.696
	c9.217,0,16.696,7.473,16.696,16.696v66.783C306.087,270.788,298.608,278.261,289.391,278.261z"/>
<rect x="239.304" y="311.652" style="fill:#E6EDF2;" width="33.391" height="133.565"/>
<g>
	<polyline style="fill:#B8CAD9;" points="339.478,311.652 339.478,445.217 306.087,445.217 306.087,311.652 	"/>
	<path style="fill:#B8CAD9;" d="M356.174,278.261c-9.217,0-16.696-7.473-16.696-16.696v-66.783c0-9.223,7.479-16.696,16.696-16.696
		c9.217,0,16.696,7.473,16.696,16.696v66.783C372.87,270.788,365.391,278.261,356.174,278.261z"/>
	<polyline style="fill:#B8CAD9;" points="406.261,311.652 406.261,445.217 372.87,445.217 372.87,311.652 	"/>
</g>
<g>
	<rect x="172.522" y="311.652" style="fill:#E6EDF2;" width="33.391" height="133.565"/>
	<path style="fill:#E6EDF2;" d="M155.826,278.261c-9.217,0-16.696-7.473-16.696-16.696v-66.783c0-9.223,7.479-16.696,16.696-16.696
		s16.696,7.473,16.696,16.696v66.783C172.522,270.788,165.043,278.261,155.826,278.261z"/>
</g>
<path style="fill:#F2FAFF;" d="M389.565,211.478h-267.13c-9.217,0-16.696-7.473-16.696-16.696c0-9.223,7.479-16.696,16.696-16.696
	h267.13c9.217,0,16.696,7.473,16.696,16.696C406.261,204.005,398.782,211.478,389.565,211.478z"/>
<path style="fill:#CFDCE6;" d="M389.565,178.087H256v33.391h133.565c9.217,0,16.696-7.473,16.696-16.696
	C406.261,185.56,398.782,178.087,389.565,178.087z"/>
<path style="fill:#F2FAFF;" d="M422.957,278.261H89.043c-9.217,0-16.696-7.473-16.696-16.696c0-9.223,7.479-16.696,16.696-16.696
	h333.913c9.217,0,16.696,7.473,16.696,16.696C439.652,270.788,432.174,278.261,422.957,278.261z"/>
<path style="fill:#CFDCE6;" d="M422.957,244.87H256v33.391h166.957c9.217,0,16.696-7.473,16.696-16.696
	C439.652,252.343,432.174,244.87,422.957,244.87z"/>
<rect x="105.739" y="311.652" style="fill:#E6EDF2;" width="33.391" height="133.565"/>
<rect x="256" y="311.652" style="fill:#B8CAD9;" width="16.696" height="133.565"/>
<path style="fill:#F2FAFF;" d="M406.261,512H105.739v-66.783h300.522V512z"/>
<rect x="256" y="445.217" style="fill:#CFDCE6;" width="150.261" height="66.783"/>
<g>
</g>
<g>
</g>
<g>
</g>
<g>
</g>
<g>
</g>
<g>
</g>
<g>
</g>
<g>
</g>
<g>
</g>
<g>
</g>
<g>
</g>
<g>
</g>
<g>
</g>
<g>
</g>
<g>
</g>
</svg>
