<svg id="Capa_1" enable-background="new 0 0 512 512" height="512" viewBox="0 0 512 512" width="512" xmlns="http://www.w3.org/2000/svg"><g><g><path d="m160.365 512h-150.063c-5.69 0-10.302-4.612-10.302-10.302v-491.396c0-5.69 4.612-10.302 10.302-10.302h150.063c5.69 0 10.302 4.612 10.302 10.302v491.396c0 5.69-4.613 10.302-10.302 10.302z" fill="#e28086"/><path d="m149.854 0v512h10.511c5.69 0 10.302-4.612 10.302-10.302v-491.396c0-5.69-4.612-10.302-10.302-10.302z" fill="#dd636e"/><path d="m35.382 397.633v-14.779c0-5.69 4.612-10.302 10.302-10.302h79.299c5.69 0 10.302 4.612 10.302 10.302v14.779c0 5.69-4.612 10.302-10.302 10.302h-79.299c-5.69 0-10.302-4.612-10.302-10.302z" fill="#efecef"/><path d="m35.382 328.95v-283.266c0-5.69 4.612-10.302 10.302-10.302h79.299c5.69 0 10.302 4.612 10.302 10.302v283.266c0 5.69-4.612 10.302-10.302 10.302h-79.299c-5.69 0-10.302-4.612-10.302-10.302z" fill="#efecef"/><circle cx="85.333" cy="458.927" fill="#544f57" r="17.691"/></g><g><path d="m331.032 512h-150.064c-5.69 0-10.302-4.612-10.302-10.302v-491.396c0-5.69 4.612-10.302 10.302-10.302h150.063c5.69 0 10.302 4.612 10.302 10.302v491.396c0 5.69-4.612 10.302-10.301 10.302z" fill="#bed8fb"/><path d="m320.52 0v512h10.511c5.69 0 10.302-4.612 10.302-10.302v-491.396c0-5.69-4.612-10.302-10.302-10.302z" fill="#9dc6fb"/><path d="m206.049 397.633v-14.779c0-5.69 4.612-10.302 10.302-10.302h79.299c5.69 0 10.302 4.612 10.302 10.302v14.779c0 5.69-4.612 10.302-10.302 10.302h-79.299c-5.69 0-10.302-4.612-10.302-10.302z" fill="#efecef"/><path d="m206.049 328.95v-283.266c0-5.69 4.612-10.302 10.302-10.302h79.299c5.69 0 10.302 4.612 10.302 10.302v283.266c0 5.69-4.612 10.302-10.302 10.302h-79.299c-5.69 0-10.302-4.612-10.302-10.302z" fill="#efecef"/><circle cx="256" cy="458.927" fill="#544f57" r="17.691"/></g><g><path d="m501.698 512h-150.063c-5.69 0-10.302-4.612-10.302-10.302v-491.396c0-5.69 4.612-10.302 10.302-10.302h150.063c5.69 0 10.302 4.612 10.302 10.302v491.396c0 5.69-4.612 10.302-10.302 10.302z" fill="#b3e59f"/><path d="m491.187 0v512h10.511c5.69 0 10.302-4.612 10.302-10.302v-491.396c0-5.69-4.612-10.302-10.302-10.302z" fill="#95d6a4"/><path d="m376.715 397.633v-14.779c0-5.69 4.612-10.302 10.302-10.302h79.299c5.69 0 10.302 4.612 10.302 10.302v14.779c0 5.69-4.612 10.302-10.302 10.302h-79.299c-5.689 0-10.302-4.612-10.302-10.302z" fill="#efecef"/><path d="m376.715 328.95v-283.266c0-5.69 4.612-10.302 10.302-10.302h79.299c5.69 0 10.302 4.612 10.302 10.302v283.266c0 5.69-4.612 10.302-10.302 10.302h-79.299c-5.689 0-10.302-4.612-10.302-10.302z" fill="#efecef"/><circle cx="426.667" cy="458.927" fill="#544f57" r="17.691"/></g><g><path d="m99.902 278.295h-29.137c-4.268 0-7.726-3.459-7.726-7.726s3.459-7.726 7.726-7.726h29.138c4.268 0 7.726 3.459 7.726 7.726s-3.459 7.726-7.727 7.726z" fill="#544f57"/></g><g><path d="m99.902 311.596h-29.137c-4.268 0-7.726-3.459-7.726-7.726s3.459-7.726 7.726-7.726h29.138c4.268 0 7.726 3.459 7.726 7.726s-3.459 7.726-7.727 7.726z" fill="#544f57"/></g><g><path d="m99.902 244.994h-29.137c-4.268 0-7.726-3.459-7.726-7.726s3.459-7.726 7.726-7.726h29.138c4.268 0 7.726 3.459 7.726 7.726s-3.459 7.726-7.727 7.726z" fill="#544f57"/></g><g><path d="m270.569 278.295h-29.139c-4.268 0-7.726-3.459-7.726-7.726s3.459-7.726 7.726-7.726h29.139c4.268 0 7.726 3.459 7.726 7.726.001 4.267-3.458 7.726-7.726 7.726z" fill="#544f57"/></g><g><path d="m270.569 311.596h-29.139c-4.268 0-7.726-3.459-7.726-7.726s3.459-7.726 7.726-7.726h29.139c4.268 0 7.726 3.459 7.726 7.726s-3.458 7.726-7.726 7.726z" fill="#544f57"/></g><g><path d="m270.569 244.994h-29.139c-4.268 0-7.726-3.459-7.726-7.726s3.459-7.726 7.726-7.726h29.139c4.268 0 7.726 3.459 7.726 7.726s-3.458 7.726-7.726 7.726z" fill="#544f57"/></g><g><path d="m441.235 278.295h-29.138c-4.268 0-7.726-3.459-7.726-7.726s3.459-7.726 7.726-7.726h29.138c4.268 0 7.726 3.459 7.726 7.726.001 4.267-3.458 7.726-7.726 7.726z" fill="#544f57"/></g><g><path d="m441.235 311.596h-29.138c-4.268 0-7.726-3.459-7.726-7.726s3.459-7.726 7.726-7.726h29.138c4.268 0 7.726 3.459 7.726 7.726s-3.458 7.726-7.726 7.726z" fill="#544f57"/></g><g><path d="m441.235 244.994h-29.138c-4.268 0-7.726-3.459-7.726-7.726s3.459-7.726 7.726-7.726h29.138c4.268 0 7.726 3.459 7.726 7.726s-3.458 7.726-7.726 7.726z" fill="#544f57"/></g></g></svg>