<?xml version="1.0" encoding="iso-8859-1"?>
<!-- Generator: Adobe Illustrator 19.0.0, SVG Export Plug-In . SVG Version: 6.00 Build 0)  -->
<svg version="1.1" id="Capa_1" xmlns="http://www.w3.org/2000/svg" xmlns:xlink="http://www.w3.org/1999/xlink" x="0px" y="0px"
	 viewBox="0 0 511.999 511.999" style="enable-background:new 0 0 511.999 511.999;" xml:space="preserve">
<g>
	<path style="fill:#EAE8E8;" d="M511.999,423.068c0,7.345-5.954,13.299-13.299,13.299H13.299C5.954,436.367,0,430.413,0,423.068
		V88.931c0-7.345,5.954-13.299,13.299-13.299H498.7c7.345,0,13.299,5.954,13.299,13.299L511.999,423.068L511.999,423.068z"/>
	<path style="fill:#D3D1D1;" d="M20.605,423.068V88.931c0-7.345,5.954-13.299,13.299-13.299H13.299C5.954,75.632,0,81.586,0,88.931
		v334.137c0,7.345,5.954,13.299,13.299,13.299h20.605C26.559,436.367,20.605,430.413,20.605,423.068z"/>
	<path style="fill:#4A94CC;" d="M469.874,104.837H255.999v216.439h213.874c6.828,0,12.363-5.535,12.363-12.363V117.2
		C482.237,110.373,476.702,104.837,469.874,104.837z M470.652,193.128l-55.865,44.093l21.19,70.869
		c0.483,1.617-0.115,3.362-1.489,4.341c-1.374,0.98-3.218,0.974-4.59-0.009l-57.841-41.585
		c-64.742,45.128-60.424,42.488-62.193,42.488c-2.653,0-4.553-2.575-3.767-5.107l20.428-66.095l-57.43-47.653
		c-1.28-1.062-1.755-2.81-1.191-4.374c0.563-1.563,2.048-2.606,3.711-2.606h71.719l22.911-68.138
		c0.539-1.602,2.038-2.682,3.729-2.686c0.002,0,0.006,0,0.01,0c1.684,0,3.183,1.071,3.729,2.665l22.861,66.759h71.634
		c1.68,0,3.175,1.062,3.727,2.65C472.484,190.327,471.968,192.088,470.652,193.128z"/>
	<path style="fill:#2884BC;" d="M269.097,194.471c-1.28-1.062-1.755-2.81-1.191-4.374c0.563-1.563,2.048-2.606,3.711-2.606h5.744
		v-82.654h-21.36v216.439h21.36V201.327L269.097,194.471z"/>
	<path style="fill:#EA473B;" d="M42.124,104.837c-6.828,0-12.363,5.536-12.363,12.363v191.713c0,6.828,5.535,12.363,12.363,12.363
		h213.875V104.837H42.124z M241.773,194.576l-55.601,42.645l21.199,70.866c0.484,1.618-0.117,3.363-1.49,4.342
		c-1.376,0.979-3.223,0.974-4.591-0.009l-57.836-41.583c-64.747,45.131-60.426,42.489-62.193,42.489
		c-2.643,0-4.554-2.565-3.767-5.107l20.423-66.096L40.488,194.47c-2.831-2.351-1.167-6.979,2.518-6.979h71.727l22.877-68.038
		c0.539-1.605,2.044-2.686,3.738-2.686c1.693,0,3.198,1.082,3.737,2.685l22.887,68.053h71.401c1.69,0,3.192,1.077,3.734,2.676
		C243.65,191.781,243.113,193.549,241.773,194.576z"/>
	<path style="fill:#D82B27;" d="M50.366,308.913V202.666l-9.877-8.196c-1.28-1.062-1.755-2.81-1.192-4.374
		c0.564-1.563,2.048-2.606,3.711-2.606h7.359V117.2c0-6.827,5.535-12.363,12.363-12.363H42.124c-6.828,0-12.363,5.536-12.363,12.363
		v191.713c0,6.828,5.535,12.363,12.363,12.363h20.605C55.901,321.276,50.366,315.742,50.366,308.913z"/>
	<g>
		<path style="fill:#F4F4F4;" d="M269.097,194.471l57.43,47.653l-20.428,66.095c-0.499,1.608,0.08,3.354,1.441,4.348
			c1.362,0.993,3.203,1.013,4.582,0.049l59.937-41.778l57.841,41.585c1.372,0.983,3.215,0.989,4.59,0.009
			c1.374-0.979,1.972-2.724,1.489-4.341l-21.19-70.869l55.865-44.093c1.316-1.04,1.831-2.801,1.282-4.388
			c-0.551-1.588-2.046-2.65-3.727-2.65h-71.634l-22.861-66.759c-0.545-1.595-2.044-2.665-3.729-2.665c-0.004,0-0.008,0-0.01,0
			c-1.69,0.004-3.189,1.085-3.729,2.686l-22.911,68.138h-71.719c-1.662,0-3.147,1.042-3.711,2.606
			C267.342,191.66,267.817,193.408,269.097,194.471z"/>
		<path style="fill:#F4F4F4;" d="M239.373,187.504h-71.401l-22.887-68.053c-0.538-1.604-2.043-2.685-3.737-2.685
			c-1.693,0-3.198,1.082-3.738,2.686l-22.877,68.038H43.008c-3.681,0-5.354,4.625-2.518,6.979l57.429,47.653l-20.423,66.096
			c-0.498,1.609,0.081,3.355,1.442,4.348c1.36,0.994,3.204,1.012,4.58,0.049l59.938-41.779l57.836,41.583
			c1.368,0.983,3.214,0.988,4.591,0.009c1.373-0.979,1.974-2.724,1.49-4.342l-21.199-70.866l55.601-42.645
			c1.34-1.027,1.877-2.795,1.334-4.396C242.565,188.581,241.063,187.504,239.373,187.504z"/>
	</g>
</g>
<g>
	<path style="fill:#585A60;" d="M100.086,367.057v2.372c0,1.423,1.153,2.576,2.576,2.576h2.978c1.423,0,2.576-1.153,2.576-2.576
		V344.58c0-1.423-1.153-2.576-2.576-2.576H42.674c-1.423,0-2.576,1.153-2.576,2.576v24.849c0,1.423,1.153,2.576,2.576,2.576h2.979
		c1.423,0,2.576-1.153,2.576-2.576v-2.372c0-11.541,5.794-16.916,18.235-16.916v52.626c0,4.661-2.767,3.953-10.271,3.953
		c-1.423,0-2.576,1.153-2.576,2.576v2.979c0,1.423,1.153,2.576,2.576,2.576h35.932c1.423,0,2.576-1.153,2.576-2.576v-2.979
		c0-1.423-1.153-2.576-2.576-2.576c-7.518,0-10.277,0.699-10.277-3.953v-52.626C94.29,350.141,100.086,355.516,100.086,367.057z"/>
	<path style="fill:#585A60;" d="M168.527,400.807l-21.352-57.128c-0.376-1.007-1.338-1.674-2.413-1.674h-11.781
		c-1.089,0-2.059,0.684-2.426,1.709l-20.368,57.063c-3.138,8.675-11.541,3.544-11.541,8.457v3.04c0,1.423,1.153,2.576,2.576,2.576
		h29.122c1.423,0,2.576-1.153,2.576-2.576v-2.979c0-1.423-1.153-2.576-2.576-2.576c-7.84,0-10.766,0.73-9.058-4.303l3.617-10.97
		h24.942c5.617,17.038,6.823,15.273-5.443,15.273c-1.423,0-2.576,1.153-2.576,2.576v2.979c0,1.423,1.153,2.576,2.576,2.576h33.084
		c1.423,0,2.576-1.153,2.576-2.576v-3.042C180.062,404.249,171.862,409.51,168.527,400.807z M128.087,383.317l8.793-26.48h0.218
		l9.563,26.48H128.087z"/>
	<path style="fill:#585A60;" d="M279.536,342.005h-28.774c-1.093,0-2.067,0.69-2.429,1.722l-16.097,45.852h-0.223l-14.268-45.765
		c-0.336-1.076-1.332-1.809-2.459-1.809h-30.03c-1.423,0-2.576,1.153-2.576,2.576v2.985c0,1.423,1.153,2.576,2.576,2.576h4.351
		c1.954,0,4.282,0.648,4.282,3.736v49.109c0,7.318-11.209,0.563-11.209,6.31v2.979c0,1.423,1.153,2.576,2.576,2.576h29.243
		c1.423,0,2.576-1.153,2.576-2.576v-2.979c0-1.423-1.153-2.576-2.576-2.576h-4.238c-2.914,0-4.948-1.535-4.948-3.735v-49.99h0.223
		l19.529,60.075c0.345,1.061,1.334,1.78,2.45,1.78c5.14,0,7.091,0.453,7.837-1.748l20.397-60.107h0.217v49.99
		c0,2.269-1.857,3.735-4.731,3.735h-4.67c-1.423,0-2.576,1.153-2.576,2.576v2.979c0,1.423,1.153,2.576,2.576,2.576h32.97
		c1.423,0,2.576-1.153,2.576-2.576v-2.979c0-6.037-11.643,1.874-11.643-7.851v-47.568c0-3.088,2.328-3.736,4.282-3.736h4.785
		c1.423,0,2.576-1.153,2.576-2.576v-2.985C282.112,343.158,280.959,342.005,279.536,342.005z"/>
	<path style="fill:#585A60;" d="M321.221,342.005H287.48c-1.423,0-2.576,1.153-2.576,2.576v2.985c0,1.423,1.153,2.576,2.576,2.576
		c4.085,0,9.178-0.673,9.178,4.941v47.685c0,2.372-1.064,3.953-6.262,3.953h-2.916c-1.423,0-2.576,1.153-2.576,2.576v2.979
		c0,1.423,1.153,2.576,2.576,2.576h33.741c1.423,0,2.576-1.153,2.576-2.576v-2.979c0-1.423-1.153-2.576-2.576-2.576
		c-4.505,0-9.184,0.74-9.184-5.382v-45.935c0-4.349,3.765-5.262,6.924-5.262h2.26c1.423,0,2.576-1.153,2.576-2.576v-2.985
		C323.796,343.158,322.643,342.005,321.221,342.005z"/>
	<path style="fill:#585A60;" d="M385.287,406.72h-6.759c-2.795,0-4.397-1.642-4.397-4.504v-17.248l22.989-31.245
		c1.66-2.337,4.135-3.473,7.795-3.574c1.394-0.038,2.505-1.179,2.505-2.575v-2.994c0-1.423-1.153-2.576-2.576-2.576H375.17
		c-1.423,0-2.576,1.153-2.576,2.576v2.985c0,1.423,1.153,2.576,2.576,2.576h5.554c2.87,0,3.38,2.848,1.634,5.177l-13.613,18.442
		c-13.762-20.271-13.514-19.478-13.514-21.1c0-5.498,10.55,0.413,10.55-5.095v-2.985c0-1.423-1.153-2.576-2.576-2.576h-33.747
		c-1.423,0-2.576,1.153-2.576,2.576v3.001c0,1.382,1.091,2.518,2.473,2.574c3.598,0.144,6.061,1.359,7.777,3.869l21.617,30.281
		v18.462c0,4.693-2.718,3.953-11.055,3.953c-1.423,0-2.576,1.153-2.576,2.576v2.979c0,1.423,1.153,2.576,2.576,2.576h37.592
		c1.423,0,2.576-1.153,2.576-2.576v-2.979C387.863,407.873,386.71,406.72,385.287,406.72z"/>
	<path style="fill:#585A60;" d="M460.374,400.807l-21.36-57.129c-0.376-1.006-1.338-1.673-2.413-1.673h-11.775
		c-1.089,0-2.06,0.684-2.427,1.709l-20.38,57.066c-1.642,4.552-4.829,5.643-9.109,5.883c-1.364,0.077-2.433,1.205-2.433,2.572v3.04
		c0,1.423,1.153,2.576,2.576,2.576h29.139c1.423,0,2.576-1.153,2.576-2.576v-2.979c0-1.423-1.153-2.576-2.576-2.576
		c-6.208,0-9.508,0.482-9.508-1.979c0-0.997,0.221-1.661,0.435-2.306l3.63-10.988h24.935c5.634,17.055,6.802,15.273-5.449,15.273
		c-1.423,0-2.576,1.153-2.576,2.576v2.979c0,1.423,1.153,2.576,2.576,2.576h33.091c1.423,0,2.576-1.153,2.576-2.576v-3.042
		C471.902,404.28,463.698,409.489,460.374,400.807z M419.927,383.317l8.789-26.48h0.221l9.564,26.48H419.927z"/>
</g>
<g>
	<path style="fill:#EAE8E8;" d="M111.67,227.201L111.67,227.201c-0.365-0.303-47.475-39.371-47.807-39.71H43.008
		c-1.662,0-3.146,1.042-3.711,2.606c-0.562,1.564-0.087,3.311,1.192,4.374l57.429,47.653L77.495,308.22
		c-0.498,1.609,0.081,3.355,1.442,4.348c1.36,0.994,3.204,1.012,4.58,0.049l18.118-12.629l15.32-49.583
		C121.49,235.724,111.67,227.201,111.67,227.201z"/>
	<path style="fill:#EAE8E8;" d="M340.278,227.201L340.278,227.201l-47.515-39.427c-0.106-0.088-0.197-0.186-0.292-0.283h-20.855
		c-1.662,0-3.146,1.042-3.711,2.606c-0.562,1.564-0.088,3.311,1.192,4.374l57.429,47.653l-20.423,66.096
		c-0.498,1.609,0.082,3.355,1.442,4.348c1.36,0.994,3.204,1.012,4.58,0.049l18.118-12.629l15.321-49.583
		C350.098,235.724,340.278,227.201,340.278,227.201z"/>
</g>
<g>
</g>
<g>
</g>
<g>
</g>
<g>
</g>
<g>
</g>
<g>
</g>
<g>
</g>
<g>
</g>
<g>
</g>
<g>
</g>
<g>
</g>
<g>
</g>
<g>
</g>
<g>
</g>
<g>
</g>
</svg>
